<svg width="24" height="22" viewBox="0 0 24 22" fill="none" xmlns="http://www.w3.org/2000/svg">
<path d="M2.39258 0L1.26953 1.12305L6.12793 5.95703L14.7949 14.624L16.2842 16.1377L21.582 21.4355L22.7051 20.3125L17.8467 15.4541C21.1548 13.8153 23.3734 11.3831 23.5107 11.2305L23.9746 10.7178L23.5107 10.2051C23.3002 9.97009 18.3044 4.46777 11.9873 4.46777C10.4584 4.46777 9.01489 4.80347 7.69043 5.29785L2.39258 0ZM11.9873 6.03027C13.6688 6.03027 15.2588 6.5033 16.6748 7.15332C17.1783 7.99561 17.4561 8.94775 17.4561 9.93652C17.4561 11.3556 16.9067 12.6526 16.0156 13.623L13.7939 11.4014C14.1205 11.0016 14.3311 10.495 14.3311 9.93652C14.3311 8.64258 13.2812 7.59277 11.9873 7.59277C11.4288 7.59277 10.9222 7.80334 10.5225 8.12988L8.93555 6.54297C9.90601 6.2439 10.9222 6.03027 11.9873 6.03027ZM4.71191 6.73828C2.20642 8.27942 0.579834 10.0739 0.463867 10.2051L0 10.7178L0.463867 11.2305C0.665284 11.4563 5.29175 16.5192 11.2549 16.9189C11.496 16.9434 11.7401 16.9678 11.9873 16.9678C12.2345 16.9678 12.4786 16.9434 12.7197 16.9189C13.3636 16.8762 13.9923 16.7908 14.5996 16.6504L13.208 15.2588C12.8113 15.3503 12.4084 15.4053 11.9873 15.4053C8.97217 15.4053 6.51855 12.9517 6.51855 9.93652C6.51855 9.52148 6.57349 9.1156 6.66504 8.71582L4.71191 6.73828ZM5.15137 8.3252C5.02625 8.85315 4.95605 9.39026 4.95605 9.93652C4.95605 11.2946 5.33752 12.5458 6.00586 13.623C4.21753 12.5977 2.85034 11.3953 2.14844 10.7178C2.73132 10.1532 3.78113 9.21631 5.15137 8.3252ZM18.8232 8.3252C20.1935 9.21631 21.2402 10.1532 21.8262 10.7178C21.1243 11.3953 19.7357 12.6221 17.9443 13.6475C18.6157 12.5702 19.0186 11.2946 19.0186 9.93652C19.0186 9.39026 18.9484 8.8501 18.8232 8.3252Z" fill="black"/>
</svg>
