<svg width="24" height="13" viewBox="0 0 24 13" fill="none" xmlns="http://www.w3.org/2000/svg">
<path d="M11.9873 0C5.47485 0 0.463867 5.7373 0.463867 5.7373L0 6.25L0.463867 6.7627C0.463867 6.7627 5.03235 11.972 11.1084 12.4512C11.3983 12.4878 11.6882 12.5 11.9873 12.5C12.2864 12.5 12.5763 12.4878 12.8662 12.4512C18.9423 11.972 23.5107 6.7627 23.5107 6.7627L23.9746 6.25L23.5107 5.7373C23.5107 5.7373 18.4998 0 11.9873 0ZM11.9873 1.5625C13.7085 1.5625 15.2954 2.03247 16.6748 2.66113C17.1722 3.48511 17.4561 4.4342 17.4561 5.46875C17.4561 8.29163 15.3381 10.611 12.5977 10.9131C12.5824 10.9161 12.5641 10.91 12.5488 10.9131C12.3627 10.9222 12.1765 10.9375 11.9873 10.9375C11.7798 10.9375 11.5784 10.9253 11.377 10.9131C8.63647 10.611 6.51855 8.29163 6.51855 5.46875C6.51855 4.44946 6.79321 3.50037 7.27539 2.68555H7.25098C8.64258 2.04468 10.2478 1.5625 11.9873 1.5625ZM11.9873 3.125C10.6934 3.125 9.64355 4.1748 9.64355 5.46875C9.64355 6.7627 10.6934 7.8125 11.9873 7.8125C13.2812 7.8125 14.3311 6.7627 14.3311 5.46875C14.3311 4.1748 13.2812 3.125 11.9873 3.125ZM5.15137 3.85742C5.0293 4.38232 4.95605 4.91028 4.95605 5.46875C4.95605 6.83899 5.34668 8.12073 6.03027 9.2041C4.06189 8.0658 2.6947 6.70776 2.24609 6.25C2.62146 5.86548 3.66821 4.84619 5.15137 3.85742ZM18.8232 3.85742C20.3064 4.84619 21.3531 5.86548 21.7285 6.25C21.2799 6.70776 19.9127 8.0658 17.9443 9.2041C18.6279 8.12073 19.0186 6.83899 19.0186 5.46875C19.0186 4.91028 18.9453 4.37622 18.8232 3.85742Z" fill="#838383"/>
</svg>
